<svg xmlns="http://www.w3.org/2000/svg" xmlns:xlink="http://www.w3.org/1999/xlink" width="1013.98" height="383.24" viewBox="0 0 1013.98 383.24"><defs><linearGradient id="linear-gradient" x1="720.76" y1="151.94" x2="687.14" y2="0.63" gradientUnits="userSpaceOnUse"><stop offset="0" stop-color="#00979c"/><stop offset="1" stop-color="#00697a"/></linearGradient><linearGradient id="linear-gradient-2" x1="282.69" y1="15.24" x2="378.66" y2="286.6" gradientUnits="userSpaceOnUse"><stop offset="0" stop-color="#00697a"/><stop offset="1" stop-color="#00979c"/></linearGradient><linearGradient id="linear-gradient-3" x1="-1157.63" y1="68.6" x2="-1161.22" y2="320.19" gradientTransform="matrix(-0.99, 0.11, 0.11, 0.99, -640, 43.76)" xlink:href="#linear-gradient-2"/><linearGradient id="linear-gradient-4" x1="305.69" y1="130.27" x2="305.69" y2="254.12" xlink:href="#linear-gradient-2"/><linearGradient id="linear-gradient-5" x1="594.93" y1="108.45" x2="596.5" y2="264.44" gradientUnits="userSpaceOnUse"><stop offset="0" stop-color="#006376"/><stop offset="1" stop-color="#1b9e9c"/></linearGradient><clipPath id="clip-path"><polygon points="61.89 194.88 338.51 194.88 896.15 194.88 896.15 383.24 242.32 383.24 82.34 383.24 61.89 194.88" style="fill:none"/></clipPath><linearGradient id="linear-gradient-7" x1="61.89" y1="289.06" x2="896.15" y2="289.06" gradientUnits="userSpaceOnUse"><stop offset="0" stop-color="#057187"/><stop offset="0.52" stop-color="#27a3bb"/><stop offset="1" stop-color="#006a7b"/></linearGradient><linearGradient id="linear-gradient-8" x1="207.41" y1="284.8" x2="698.38" y2="284.8" gradientUnits="userSpaceOnUse"><stop offset="0" stop-color="#057187"/><stop offset="1" stop-color="#27a3bb" stop-opacity="0.3"/></linearGradient><linearGradient id="linear-gradient-9" x1="604.26" y1="1806.66" x2="605.45" y2="1924.27" gradientTransform="matrix(1, 0, 0, -1, 0, 2055.17)" xlink:href="#linear-gradient-5"/><linearGradient id="linear-gradient-11" x1="-1190.92" y1="284.8" x2="-892.16" y2="284.8" gradientTransform="matrix(-1, 0, 0, 1, -568.53, 0)" gradientUnits="userSpaceOnUse"><stop offset="0" stop-color="#27a3bb" stop-opacity="0.2"/><stop offset="1" stop-color="#057187"/></linearGradient></defs><title>Asset 3</title><g style="isolation:isolate"><g id="Layer_2" data-name="Layer 2"><g id="OBJECTS"><path d="M959.09,48.93,836.44,11,819,19.47S815,16.28,798.4,18.21s-32.76,3.69-32.76,3.69L708.1,3.18,656.08,0,585.71,26.07,485.05,47.14l-68.56,61.64L699.36,146l314.62-.68Z" style="mix-blend-mode:multiply;fill:url(#linear-gradient)"/><path d="M654.16,141.91S546.47,117.8,538.44,121s-49.83-.3-49.83-.3L464.5,95.3S445.21,84.05,434,80.84s-54.64,0-54.64,0L316.63,58.33,287.7,48.69,245.91,19.76S186.44,40.65,176.8,40.65s-20.89,24.11-20.89,24.11l-37,16.08L90,113,0,227.1H715.23Z" style="fill:url(#linear-gradient-2)"/><path d="M276.15,147.48s85.45-28.85,92.26-26.93S477.82,70,477.82,70l75.68-4.85,79.82-35.78,54.5,3.4,40.59,23.69,126.33,132L233.83,222Z" style="fill:url(#linear-gradient-3)"/><path d="M472.4,185.29l-89.61-40.85H359.07l-25,7.9s-19.77-42.17-27.68-42.17-33,6.59-33,6.59l-25,18.45L232.55,155l-44.81,19.77s-19.77,21.08-34.26,29L139,211.65H472.4Z" style="fill:url(#linear-gradient-4)"/><path d="M295.2,198.47s61.94-22.41,73.8-22.41,35.59-6.59,54-9.22,79.07-26.36,79.07-26.36h34.26l25-11.86s36.9,6.59,42.17,6.59,39.54-18.45,39.54-18.45L680,90.4h26.36l39.53-23.72L787.28,60l49.57,34.4L896.15,155v55.35H295.2Z" style="fill:url(#linear-gradient-5)"/><g style="opacity:0.61;mix-blend-mode:multiply"><path d="M295.2,198.47s61.94-22.41,73.8-22.41,35.59-6.59,54-9.22,79.07-26.36,79.07-26.36h34.26l25-11.86s36.9,6.59,42.17,6.59,39.54-18.45,39.54-18.45L680,90.4h26.36l39.53-23.72L787.28,60l49.57,34.4L896.15,155v55.35H295.2Z" style="fill:url(#linear-gradient-5)"/></g><g style="clip-path:url(#clip-path)"><polygon points="61.89 194.88 338.51 194.88 896.15 194.88 896.15 383.24 242.32 383.24 82.34 383.24 61.89 194.88" style="fill:url(#linear-gradient-7)"/><path d="M342.09,191S193,188.16,208.55,196.74s101.08,6.65,86.38,12.62c-4.47,1.81-19.81,0-38.59,4.59-17.17,4.2-9.41,14,4.65,14.14,26.32.25,47.65,2.52,34.93,5.25-22.15,4.75-28.44,7.32-22.15,11,2.92,1.71,21.38-1.08,23,1.75,5.41,9.67-41.21-2.08-41.21,15.92,0,19.18,85,.74,84.93,13.16,0,6.87-20.89,8.35-28.09,11.2-17.58,7-8.68,18.49,24.13,14.47,28.18-3.45,20.86,23.12-6.34,24.13-23.55.86-40.38,37.24,31.12,35l120,17.51,76.93-.58s84,8.84,63.27-9.62-10.73-15.21,6.57-31.89-17.94-18.94-36.83-27.95,10-6.6,49.33-12.54,38.47-39.67,3.89-40-38.54-14.29-13.21-15.62,80.67-16.89,39.76-23.79-1-9.57,17.46-10.91S694,191,694,191Z" style="opacity:0.72;mix-blend-mode:screen;fill:url(#linear-gradient-8)"/><g style="opacity:0.23;mix-blend-mode:multiply"><path d="M304.34,181.36s61.94,16.85,73.8,16.85,35.59,5,54,6.94S511.25,225,511.25,225h34.26l25,8.92s36.9-5,42.17-5,39.54,13.88,39.54,13.88l36.9,19.82h26.36l39.53,17.85,41.37,5.05L846,259.67l59.3-45.6V172.44H304.34Z" style="fill:url(#linear-gradient-9)"/><g style="opacity:0.61;mix-blend-mode:multiply"><path d="M304.34,181.36s61.94,16.85,73.8,16.85,35.59,5,54,6.94S511.25,225,511.25,225h34.26l25,8.92s36.9-5,42.17-5,39.54,13.88,39.54,13.88l36.9,19.82h26.36l39.53,17.85,41.37,5.05L846,259.67l59.3-45.6V172.44H304.34Z" style="fill:url(#linear-gradient-9)"/></g></g><path d="M540.43,191s90.72-2.86,81.27,5.72-61.51,6.65-52.57,12.62c2.72,1.81,12.06,0,23.49,4.59,10.44,4.2,5.72,14-2.84,14.14-16,.25-29,2.52-21.25,5.25,13.48,4.75,17.31,7.32,13.48,11-1.78,1.71-13-1.08-14,1.75-3.29,9.67,25.08-2.08,25.08,15.92,0,19.18-51.73.74-51.68,13.16,0,6.87,12.71,8.35,17.09,11.2,10.7,7,5.28,18.49-14.68,14.47C526.69,297.4,531.15,324,547.7,325c14.32.86,24.57,37.24-18.94,35l-73,17.51-46.81-.58s-51.11,8.84-38.5-9.62,6.52-15.21-4-31.89,10.91-18.94,22.41-27.95,3.27-18.51-20.95-18.13c-32.51.52-20.81-22.8,0-27.89,33.51-8.2,28.73-22.79-3.4-22.1-43.08.91-49.09-16.89-24.19-23.79s.59-9.57-10.63-10.91c-5-.59-6.19-3.35-6-6.23.28-4.23,3.4-7.4,7-7.4Z" style="opacity:0.47000000000000003;mix-blend-mode:screen;fill:url(#linear-gradient-11)"/><g style="opacity:0.51"><path d="M443,246.58c8.92-.84,17.84-1.3,26.77-1.62,4.46-.2,8.92-.26,13.38-.39l13.38-.17,13.39,0c4.46.09,8.92.1,13.38.26,8.93.23,17.85.61,26.78,1.37-8.92.84-17.84,1.3-26.76,1.62-4.46.2-8.92.26-13.38.39l-13.39.16-13.38,0c-4.47-.09-8.93-.1-13.39-.26C460.85,247.7,451.92,247.33,443,246.58Z" style="fill:#c7ffff"/><path d="M527.86,232.33c6.88-.82,13.75-1.25,20.63-1.55s13.76-.47,20.64-.49,13.76.1,20.64.36,13.76.66,20.64,1.44c-6.88.82-13.76,1.26-20.63,1.56s-13.76.47-20.64.48-13.76-.11-20.64-.37S534.74,233.1,527.86,232.33Z" style="fill:#c7ffff"/><path d="M294,225.43c6.88-.81,13.75-1.25,20.63-1.55s13.76-.47,20.64-.49,13.76.11,20.64.37,13.76.65,20.64,1.43c-6.88.82-13.76,1.26-20.63,1.56s-13.76.47-20.64.48-13.76-.1-20.64-.36S300.92,226.21,294,225.43Z" style="fill:#c7ffff"/><path d="M505.12,259.2c12.34-.88,24.69-1.37,37-1.73,6.17-.22,12.34-.3,18.52-.44l18.52-.23,18.51,0c6.18.07,12.35.06,18.53.2,12.34.2,24.69.54,37,1.26-12.34.88-24.68,1.37-37,1.73-6.17.22-12.34.3-18.51.45l-18.52.22H560.69c-6.17-.06-12.35-.06-18.52-.2C529.82,260.25,517.47,259.91,505.12,259.2Z" style="fill:#c7ffff"/><path d="M414.33,279.54c12.34-.88,24.68-1.37,37-1.73,6.17-.22,12.34-.3,18.51-.45l18.52-.22,18.52,0c6.17.06,12.35.06,18.52.2,12.35.2,24.7.54,37.05,1.25-12.34.88-24.68,1.38-37,1.74-6.17.22-12.34.3-18.52.44l-18.51.23H469.9c-6.18-.06-12.35-.06-18.52-.2C439,280.59,426.68,280.25,414.33,279.54Z" style="fill:#c7ffff"/><path d="M349.48,215.41c8.92-.83,17.84-1.29,26.76-1.62,4.46-.2,8.92-.26,13.38-.38l13.39-.17,13.38,0c4.46.08,8.93.09,13.39.25,8.92.24,17.85.62,26.78,1.37-8.92.84-17.85,1.3-26.77,1.63-4.46.2-8.92.25-13.38.38l-13.38.17L389.64,217c-4.46-.08-8.92-.1-13.39-.25C367.33,216.54,358.4,216.16,349.48,215.41Z" style="fill:#c7ffff"/><path d="M542.12,209.49c8.92-.83,17.84-1.29,26.76-1.62,4.46-.2,8.92-.26,13.38-.38l13.39-.17,13.38,0c4.47.08,8.93.09,13.39.25,8.93.24,17.85.62,26.78,1.37-8.92.84-17.84,1.3-26.76,1.63-4.47.2-8.93.25-13.39.38l-13.38.17-13.39,0c-4.46-.08-8.92-.1-13.38-.25C560,210.62,551.05,210.24,542.12,209.49Z" style="fill:#c7ffff"/></g></g></g></g></g></svg>