<svg xmlns="http://www.w3.org/2000/svg" xmlns:xlink="http://www.w3.org/1999/xlink" width="843.4" height="210.8" viewBox="0 0 843.4 210.8"><defs><clipPath id="clip-path"><polygon points="0 22.44 276.62 22.44 834.26 22.44 834.26 210.8 180.43 210.8 20.45 210.8 0 22.44" style="fill:none"/></clipPath><linearGradient id="linear-gradient" y1="116.62" x2="834.26" y2="116.62" gradientUnits="userSpaceOnUse"><stop offset="0" stop-color="#057187"/><stop offset="0.52" stop-color="#27a3bb"/><stop offset="1" stop-color="#006a7b"/></linearGradient><linearGradient id="linear-gradient-2" x1="145.52" y1="112.36" x2="636.49" y2="112.36" gradientUnits="userSpaceOnUse"><stop offset="0" stop-color="#057187"/><stop offset="1" stop-color="#27a3bb" stop-opacity="0.3"/></linearGradient><linearGradient id="linear-gradient-3" x1="542.37" y1="1634.22" x2="543.56" y2="1751.83" gradientTransform="matrix(1, 0, 0, -1, 0, 1710.28)" gradientUnits="userSpaceOnUse"><stop offset="0" stop-color="#006376"/><stop offset="1" stop-color="#1b9e9c"/></linearGradient><linearGradient id="linear-gradient-5" x1="-1252.81" y1="112.36" x2="-954.05" y2="112.36" gradientTransform="matrix(-1, 0, 0, 1, -692.31, 0)" gradientUnits="userSpaceOnUse"><stop offset="0" stop-color="#27a3bb" stop-opacity="0.2"/><stop offset="1" stop-color="#057187"/></linearGradient></defs><title>river</title><g style="isolation:isolate"><g id="Layer_2" data-name="Layer 2"><g id="OBJECTS"><g style="clip-path:url(#clip-path)"><polygon points="0 22.44 276.62 22.44 834.26 22.44 834.26 210.8 180.43 210.8 20.45 210.8 0 22.44" style="fill:url(#linear-gradient)"/><path d="M280.2,18.57S131.12,15.71,146.66,24.3,247.74,31,233,36.92c-4.47,1.81-19.81,0-38.59,4.59-17.17,4.2-9.41,14,4.66,14.13,26.31.25,47.64,2.53,34.92,5.26-22.14,4.75-28.44,7.31-22.14,11,2.91,1.71,21.37-1.08,23,1.75,5.41,9.66-41.21-2.09-41.21,15.92,0,19.18,85,.74,84.93,13.16-.05,6.86-20.88,8.35-28.09,11.2-17.58,7-8.68,18.48,24.13,14.47,28.18-3.45,20.86,23.12-6.34,24.12-23.54.87-40.38,37.24,31.13,35l120,17.51,76.93-.58s84,8.83,63.27-9.62S548.9,179.66,566.19,163,548.25,144,529.36,135s10-6.59,49.34-12.53,38.46-39.68,3.88-40S544,68.24,569.37,66.9,650.05,50,609.13,43.12s-1-9.58,17.46-10.91,5.49-13.64,5.49-13.64Z" style="opacity:0.72;mix-blend-mode:screen;fill:url(#linear-gradient-2)"/><g style="opacity:0.23;mix-blend-mode:multiply"><path d="M242.45,8.92s61.94,16.85,73.81,16.85,35.58,5,54,6.94,79.07,19.83,79.07,19.83h34.26l25,8.92s36.9-5,42.18-5,39.53,13.88,39.53,13.88l36.9,19.82h26.36L693.17,108l41.36,5.06L784.1,87.23l59.3-45.6V0H242.45Z" style="fill:url(#linear-gradient-3)"/><g style="opacity:0.61;mix-blend-mode:multiply"><path d="M242.45,8.92s61.94,16.85,73.81,16.85,35.58,5,54,6.94,79.07,19.83,79.07,19.83h34.26l25,8.92s36.9-5,42.18-5,39.53,13.88,39.53,13.88l36.9,19.82h26.36L693.17,108l41.36,5.06L784.1,87.23l59.3-45.6V0H242.45Z" style="fill:url(#linear-gradient-3)"/></g></g><path d="M478.55,18.57s90.72-2.86,81.26,5.73S498.3,31,507.25,36.92c2.72,1.81,12,0,23.48,4.59,10.45,4.2,5.73,14-2.83,14.13-16,.25-29,2.53-21.26,5.26,13.48,4.75,17.31,7.31,13.48,11-1.78,1.71-13-1.08-14,1.75-3.3,9.66,25.07-2.09,25.07,15.92,0,19.18-51.73.74-51.68,13.16,0,6.86,12.71,8.35,17.09,11.2,10.7,7,5.28,18.48-14.68,14.47-17.15-3.45-12.69,23.12,3.86,24.12,14.33.87,24.57,37.24-18.94,35l-73,17.51L347,204.49s-51.11,8.83-38.5-9.62,6.53-15.21-4-31.89,10.92-18.94,22.41-28S330.2,116.51,306,116.9c-32.5.51-20.81-22.8,0-27.89,33.52-8.2,28.74-22.79-3.4-22.11-43.08.92-49.09-16.88-24.19-23.78s.59-9.58-10.62-10.91c-5-.59-6.2-3.35-6-6.24.28-4.22,3.4-7.4,7-7.4Z" style="opacity:0.47000000000000003;mix-blend-mode:screen;fill:url(#linear-gradient-5)"/><g style="opacity:0.51"><path d="M381.11,74.13c8.92-.83,17.84-1.29,26.76-1.62,4.46-.19,8.92-.26,13.38-.38L434.64,72,448,72c4.46.08,8.92.1,13.39.25,8.92.24,17.85.62,26.77,1.37-8.92.85-17.84,1.31-26.76,1.63-4.46.2-8.92.25-13.38.38l-13.39.17-13.38,0c-4.46-.08-8.93-.1-13.39-.25C399,75.26,390,74.89,381.11,74.13Z" style="fill:#c7ffff"/><path d="M466,59.89c6.88-.82,13.76-1.25,20.63-1.56s13.76-.47,20.64-.48,13.76.1,20.64.36,13.76.66,20.64,1.44c-6.88.82-13.75,1.25-20.63,1.55s-13.76.48-20.64.49-13.76-.11-20.64-.37S472.85,60.66,466,59.89Z" style="fill:#c7ffff"/><path d="M232.15,53c6.88-.81,13.76-1.25,20.63-1.55S266.54,51,273.42,51s13.76.1,20.64.36,13.76.66,20.64,1.44c-6.88.82-13.75,1.26-20.63,1.56s-13.76.47-20.64.48-13.76-.11-20.64-.37S239,53.76,232.15,53Z" style="fill:#c7ffff"/><path d="M443.23,86.76c12.35-.88,24.69-1.37,37-1.74,6.17-.21,12.35-.29,18.52-.44l18.52-.22,18.52,0c6.17.06,12.34.06,18.52.2,12.35.2,24.69.53,37,1.25-12.34.88-24.68,1.38-37,1.74-6.17.22-12.35.3-18.52.44l-18.52.22-18.52,0c-6.17-.07-12.34-.06-18.52-.2C467.93,87.81,455.59,87.47,443.23,86.76Z" style="fill:#c7ffff"/><path d="M352.44,107.1c12.34-.88,24.69-1.37,37-1.74,6.17-.21,12.34-.29,18.52-.44l18.51-.22,18.52,0c6.18.06,12.35.06,18.52.19,12.35.21,24.7.54,37,1.26-12.34.88-24.68,1.38-37,1.74-6.17.22-12.34.29-18.51.44l-18.52.22-18.52,0c-6.17-.07-12.35-.07-18.52-.2C377.14,108.15,364.79,107.81,352.44,107.1Z" style="fill:#c7ffff"/><path d="M287.59,43c8.92-.84,17.84-1.29,26.76-1.62,4.46-.2,8.92-.26,13.39-.38l13.38-.17,13.38,0c4.47.09,8.93.1,13.39.26,8.93.24,17.85.61,26.78,1.37-8.92.84-17.84,1.3-26.76,1.63-4.47.2-8.93.25-13.39.38l-13.38.16-13.39,0c-4.46-.08-8.92-.1-13.38-.25C305.44,44.1,296.52,43.72,287.59,43Z" style="fill:#c7ffff"/><path d="M480.23,37.05c8.92-.84,17.84-1.29,26.76-1.62,4.46-.2,8.93-.26,13.39-.38l13.38-.17,13.39,0c4.46.09,8.92.1,13.38.26,8.93.24,17.85.61,26.78,1.37-8.92.84-17.84,1.3-26.76,1.63-4.46.2-8.92.25-13.39.38l-13.38.16-13.39,0c-4.46-.08-8.92-.1-13.38-.25C498.08,38.18,489.16,37.8,480.23,37.05Z" style="fill:#c7ffff"/></g></g></g></g></g></svg>