<svg xmlns="http://www.w3.org/2000/svg" width="977.41" height="473.74" viewBox="0 0 977.41 473.74"><title>trees</title><g id="Layer_2" data-name="Layer 2"><g id="OBJECTS"><path d="M87.89,365.64l58.65-6.59h38.22l23.72,11.86h73.81a227.72,227.72,0,0,1,32.94,0c18.45,1.32,61.94-18.45,61.94-18.45l46.13,9.26,83,9.26h87l40.86-9.26h64.57l50.08-14.53,40.86,11.89h63.25L913.55,371l13.17,43.52v39.91l-852.66-15Z" style="fill:#043246"/><path d="M325.94,366.44s0-67.61,53.35-90.53c0,0-52.26,35.52-34.38,96.26C356.67,412.1,325.94,366.44,325.94,366.44Z" style="fill:#043246"/><path d="M321.79,377.33s-17.78-68.19,41-122c0,0-36.89,41.43-36.17,110.25C327.15,413,321.79,377.33,321.79,377.33Z" style="fill:#043246"/><path d="M330.79,397.44s-36.28-61,5.19-128.24c0,0-23.85,49.56-3.83,115.61C346,430.39,330.79,397.44,330.79,397.44Z" style="fill:#043246"/><path d="M296.19,393.63s-36.28-60.95,5.19-128.24c0,0-23.85,49.56-3.82,115.61C311.38,426.58,296.19,393.63,296.19,393.63Z" style="fill:#043246"/><path d="M298.65,409s-44.29-55.78-12.38-127.77c0,0-16.87,52.17,12,115.08C318.2,439.74,298.65,409,298.65,409Z" style="fill:#043246"/><path d="M312.68,432.26s-44.29-55.78-12.38-127.77c0,0-16.87,52.17,12,115.08C332.24,463,312.68,432.26,312.68,432.26Z" style="fill:#043246"/><path d="M365,437.13s-44.29-55.79-12.38-127.77c0,0-16.87,52.17,12,115.08C384.54,467.85,365,437.13,365,437.13Z" style="fill:#043246"/><path d="M367.29,397.43s-36.26-61,5.23-128.23c0,0-23.87,49.55-3.86,115.61C382.46,430.39,367.29,397.43,367.29,397.43Z" style="fill:#043246"/><path d="M362.26,422.44s-19-67.88,38.83-122.72c0,0-36.14,42-34.18,110.84C368.26,458,362.26,422.44,362.26,422.44Z" style="fill:#043246"/><path d="M372.19,389.78s-30.14-64,17.74-127.19c0,0-28.61,47.15-15.14,114.74C384.08,424,372.19,389.78,372.19,389.78Z" style="fill:#043246"/><path d="M309.11,380.6s36.28-61-5.19-128.24c0,0,23.85,49.56,3.82,115.61C293.92,413.55,309.11,380.6,309.11,380.6Z" style="fill:#043246"/><path d="M294.53,362.43s10.07-51-3.56-76.21c0,0,21.93,20.06,11,76.21Z" style="fill:#043246"/><path d="M292.43,372.17s20.74-47.89,12.78-75.28c0,0,17.18,24-5.53,76.76Z" style="fill:#043246"/><path d="M369.79,387.3s20.74-47.89,12.78-75.28c0,0,17.18,24-5.53,76.76Z" style="fill:#043246"/><path d="M379.29,366s20.74-47.89,12.78-75.28c0,0,17.18,24-5.53,76.76Z" style="fill:#043246"/><path d="M271,378.78s.27-51.92-17.91-74.29c0,0,25.36,15.84,25.2,73Z" style="fill:#043246"/><path d="M254.14,372.42s.26-51.92-17.91-74.3c0,0,25.35,15.84,25.19,73Z" style="fill:#043246"/><path d="M250.5,369.79s16.66-49.36,6.43-76c0,0,19.13,22.57.92,76.94Z" style="fill:#043246"/><path d="M681.54,370.42s0-59.8,45.61-80.07c0,0-44.68,31.42-29.39,85.14C707.8,410.79,681.54,370.42,681.54,370.42Z" style="fill:#043246"/><path d="M678,380.05s-15.2-60.31,35.08-107.94c0,0-31.53,36.64-30.92,97.5C682.57,411.62,678,380.05,678,380.05Z" style="fill:#043246"/><path d="M685.68,397.83s-31-53.91,4.44-113.41c0,0-20.39,43.83-3.27,102.24C698.67,427,685.68,397.83,685.68,397.83Z" style="fill:#043246"/><path d="M656.11,394.46s-31-53.9,4.43-113.41c0,0-20.39,43.83-3.27,102.24C669.09,423.6,656.11,394.46,656.11,394.46Z" style="fill:#043246"/><path d="M658.21,408.07s-37.87-49.34-10.59-113c0,0-14.42,46.14,10.27,101.78C674.92,435.24,658.21,408.07,658.21,408.07Z" style="fill:#043246"/><path d="M670.2,428.63s-37.86-49.34-10.58-113c0,0-14.42,46.14,10.26,101.77C686.92,455.8,670.2,428.63,670.2,428.63Z" style="fill:#043246"/><path d="M714.92,432.93s-37.87-49.33-10.59-113c0,0-14.42,46.14,10.27,101.78C731.63,460.1,714.92,432.93,714.92,432.93Z" style="fill:#043246"/><path d="M716.89,397.83s-31-53.92,4.47-113.41c0,0-20.41,43.82-3.31,102.24C729.86,427,716.89,397.83,716.89,397.83Z" style="fill:#043246"/><path d="M712.59,419.94s-16.26-60,33.19-108.53c0,0-30.89,37.18-29.22,98C717.71,451.43,712.59,419.94,712.59,419.94Z" style="fill:#043246"/><path d="M721.08,391.05s-25.77-56.6,15.16-112.48c0,0-24.45,41.7-12.94,101.47C731.24,421.29,721.08,391.05,721.08,391.05Z" style="fill:#043246"/><path d="M667.15,382.94s31-53.91-4.44-113.41c0,0,20.39,43.83,3.27,102.24C654.17,412.08,667.15,382.94,667.15,382.94Z" style="fill:#043246"/><path d="M654.68,366.87s8.62-45.1-3-67.4c0,0,18.75,17.74,9.38,67.4Z" style="fill:#043246"/><path d="M652.89,375.48s17.73-42.35,10.93-66.57c0,0,14.68,21.22-4.73,67.88Z" style="fill:#043246"/><path d="M719,388.86s17.73-42.35,10.93-66.57c0,0,14.68,21.22-4.73,67.88Z" style="fill:#043246"/><path d="M727.15,370s17.73-42.35,10.92-66.57c0,0,14.69,21.22-4.73,67.88Z" style="fill:#043246"/><path d="M634.59,381.33s.23-45.91-15.31-65.7c0,0,21.67,14,21.54,64.54Z" style="fill:#043246"/><path d="M620.16,375.7s.22-45.91-15.31-65.7c0,0,21.67,14,21.53,64.54Z" style="fill:#043246"/><path d="M617,373.38s14.25-43.65,5.5-67.24c0,0,16.36,20,.79,68Z" style="fill:#043246"/><path d="M587.83,366.07s0-41.1,31.35-55c0,0-30.71,21.6-20.2,58.53C605.88,393.83,587.83,366.07,587.83,366.07Z" style="fill:#043246"/><path d="M585.39,372.69s-10.45-41.45,24.11-74.2c0,0-21.67,25.19-21.25,67C588.53,394.4,585.39,372.69,585.39,372.69Z" style="fill:#043246"/><path d="M590.68,384.92s-21.33-37.06,3.05-78c0,0-14,30.14-2.25,70.29C599.6,405,590.68,384.92,590.68,384.92Z" style="fill:#043246"/><path d="M570.34,382.6s-21.32-37.05,3-78c0,0-14,30.13-2.25,70.29C579.27,402.64,570.34,382.6,570.34,382.6Z" style="fill:#043246"/><path d="M571.79,392s-26-33.92-7.28-77.69c0,0-9.92,31.72,7.06,70C583.28,410.64,571.79,392,571.79,392Z" style="fill:#043246"/><path d="M580,406.09s-26-33.92-7.27-77.68c0,0-9.92,31.72,7,70C591.53,424.77,580,406.09,580,406.09Z" style="fill:#043246"/><path d="M610.77,409.05s-26-33.91-7.27-77.68c0,0-9.92,31.72,7,70C622.27,427.73,610.77,409.05,610.77,409.05Z" style="fill:#043246"/><path d="M612.13,384.92s-21.31-37.07,3.07-78c0,0-14,30.13-2.27,70.29C621,405,612.13,384.92,612.13,384.92Z" style="fill:#043246"/><path d="M609.17,400.12S598,358.85,632,325.51c0,0-21.24,25.56-20.09,67.39C612.69,421.77,609.17,400.12,609.17,400.12Z" style="fill:#043246"/><path d="M615,380.26s-17.72-38.91,10.42-77.32c0,0-16.81,28.66-8.9,69.75C622,401.05,615,380.26,615,380.26Z" style="fill:#043246"/><path d="M577.93,374.68s21.32-37.06-3-78c0,0,14,30.13,2.25,70.28C569,394.71,577.93,374.68,577.93,374.68Z" style="fill:#043246"/><path d="M569.36,363.64s5.93-31-2.09-46.34c0,0,12.89,12.2,6.45,46.34Z" style="fill:#043246"/><path d="M568.13,369.56s12.19-29.12,7.51-45.77c0,0,10.1,14.59-3.25,46.67Z" style="fill:#043246"/><path d="M613.6,378.76s12.18-29.12,7.51-45.77c0,0,10.09,14.59-3.25,46.66Z" style="fill:#043246"/><path d="M619.18,365.81s12.19-29.12,7.51-45.77c0,0,10.1,14.59-3.25,46.67Z" style="fill:#043246"/><path d="M555.55,373.58S555.71,342,545,328.41c0,0,14.9,9.63,14.8,44.37Z" style="fill:#043246"/><path d="M545.63,369.71s.15-31.57-10.53-45.17c0,0,14.9,9.63,14.81,44.37Z" style="fill:#043246"/><path d="M543.49,368.11s9.79-30,3.78-46.23c0,0,11.24,13.73.54,46.78Z" style="fill:#043246"/><path d="M522.87,375.27s0-41.1,31.35-55c0,0-30.71,21.6-20.2,58.53C540.92,403,522.87,375.27,522.87,375.27Z" style="fill:#043246"/><path d="M520.43,381.89s-10.45-41.45,24.12-74.2c0,0-21.68,25.19-21.26,67C523.58,403.6,520.43,381.89,520.43,381.89Z" style="fill:#043246"/><path d="M525.72,394.12s-21.32-37.06,3-78c0,0-14,30.13-2.25,70.29C534.64,414.15,525.72,394.12,525.72,394.12Z" style="fill:#043246"/><path d="M505.38,391.8s-21.32-37.05,3.05-78c0,0-14,30.13-2.25,70.29C514.31,411.84,505.38,391.8,505.38,391.8Z" style="fill:#043246"/><path d="M506.83,401.15s-26-33.91-7.28-77.68c0,0-9.91,31.72,7.06,70C518.32,419.83,506.83,401.15,506.83,401.15Z" style="fill:#043246"/><path d="M515.08,415.29s-26-33.92-7.28-77.68c0,0-9.92,31.71,7.06,70C526.57,434,515.08,415.29,515.08,415.29Z" style="fill:#043246"/><path d="M545.81,418.25s-26-33.92-7.27-77.68c0,0-9.92,31.72,7.05,70C557.31,436.93,545.81,418.25,545.81,418.25Z" style="fill:#043246"/><path d="M547.17,394.12s-21.31-37.07,3.07-78c0,0-14,30.13-2.27,70.29C556.08,414.15,547.17,394.12,547.17,394.12Z" style="fill:#043246"/><path d="M544.21,409.32S533,368.05,567,334.71c0,0-21.24,25.56-20.09,67.39C547.74,431,544.21,409.32,544.21,409.32Z" style="fill:#043246"/><path d="M550.05,389.46s-17.72-38.91,10.42-77.33c0,0-16.81,28.67-8.9,69.76C557,410.25,550.05,389.46,550.05,389.46Z" style="fill:#043246"/><path d="M513,383.88s21.32-37.06-3.05-78c0,0,14,30.13,2.25,70.28C504.05,403.91,513,383.88,513,383.88Z" style="fill:#043246"/><path d="M504.4,372.83s5.93-31-2.09-46.33c0,0,12.89,12.19,6.45,46.33Z" style="fill:#043246"/><path d="M503.17,378.76s12.19-29.12,7.51-45.77c0,0,10.1,14.59-3.25,46.66Z" style="fill:#043246"/><path d="M548.64,388s12.19-29.11,7.51-45.76c0,0,10.09,14.58-3.25,46.66Z" style="fill:#043246"/><path d="M554.22,375s12.19-29.12,7.51-45.77c0,0,10.1,14.59-3.25,46.67Z" style="fill:#043246"/><path d="M490.59,382.78s.16-31.57-10.52-45.17c0,0,14.9,9.63,14.8,44.37Z" style="fill:#043246"/><path d="M480.67,378.91s.15-31.57-10.53-45.17c0,0,14.9,9.63,14.81,44.37Z" style="fill:#043246"/><path d="M478.53,377.31s9.79-30,3.78-46.23c0,0,11.24,13.73.54,46.78Z" style="fill:#043246"/><path d="M458.6,376.19s-3.7-21.93,11.77-32.18c0,0-14.44,14.29-5.51,33C470.73,389.37,458.6,376.19,458.6,376.19Z" style="fill:#043246"/><path d="M457.89,379.94a43.6,43.6,0,0,1,6.19-41.75s-9.29,15.39-5.31,37.67C461.52,391.24,457.89,379.94,457.89,379.94Z" style="fill:#043246"/><path d="M461.81,386a43.59,43.59,0,0,1-5.38-41.86s-4.77,17.33,5.12,37.69C468.37,395.87,461.81,386,461.81,386Z" style="fill:#043246"/><path d="M450.76,386.58a43.58,43.58,0,0,1-5.39-41.86s-4.76,17.33,5.13,37.69C457.32,396.47,450.76,386.58,450.76,386.58Z" style="fill:#043246"/><path d="M452.37,391.44a43.57,43.57,0,0,1-10.87-40.78s-2.43,17.81,10.06,36.68C460.18,400.37,452.37,391.44,452.37,391.44Z" style="fill:#043246"/><path d="M458,398.24a43.61,43.61,0,0,1-10.87-40.79s-2.43,17.82,10.06,36.69C465.85,407.17,458,398.24,458,398.24Z" style="fill:#043246"/><path d="M474.7,397.05a43.58,43.58,0,0,1-10.86-40.78S461.4,374.08,473.89,393C482.51,406,474.7,397.05,474.7,397.05Z" style="fill:#043246"/><path d="M473.25,384.06a43.6,43.6,0,0,1-5.37-41.87s-4.77,17.34,5.11,37.7C479.81,393.94,473.25,384.06,473.25,384.06Z" style="fill:#043246"/><path d="M473,392.43a43.58,43.58,0,0,1,5.47-41.85s-9,15.55-4.66,37.76C476.87,403.66,473,392.43,473,392.43Z" style="fill:#043246"/><path d="M474.37,381.31A43.57,43.57,0,0,1,473,339.13s-6.39,16.8,1.53,38C480,391.78,474.37,381.31,474.37,381.31Z" style="fill:#043246"/><path d="M454.09,381.67a43.59,43.59,0,0,0-8.63-41.31s10.18,14.81,7.52,37.29C451.14,393.16,454.09,381.67,454.09,381.67Z" style="fill:#043246"/><path d="M448.53,376.55s.37-17.07-5.28-24.53c0,0,8,5.35,7.6,24.14Z" style="fill:#043246"/><path d="M448.41,379.82s3.88-16.63-.11-25.09c0,0,6.69,6.88,2.46,25.19Z" style="fill:#043246"/><path d="M473.48,380.64s3.89-16.63-.11-25.09c0,0,6.7,6.87,2.47,25.19Z" style="fill:#043246"/><path d="M475.3,373.23s3.88-16.63-.11-25.09c0,0,6.7,6.88,2.46,25.19Z" style="fill:#043246"/><path d="M442.06,383.1s-2.76-16.85-9.68-23.15c0,0,8.81,3.8,11.89,22.34Z" style="fill:#043246"/><path d="M436.42,381.93s-2.76-16.86-9.68-23.15c0,0,8.81,3.79,11.89,22.34Z" style="fill:#043246"/><path d="M435.13,381.27s2.52-16.89-2.14-25c0,0,7.23,6.31,4.49,24.9Z" style="fill:#043246"/><path d="M409.28,359.83s6.84-32-21.76-47c0,0,26.69,20.86,10.19,48.24C386.86,379.07,409.28,359.83,409.28,359.83Z" style="fill:#043246"/><path d="M410.59,365.3s17.2-30.91-11.45-60.95c0,0,17.19,22.46,9.82,55C403.88,381.79,410.59,365.3,410.59,365.3Z" style="fill:#043246"/><path d="M403.34,374.13s27.19-26.06,10-61.12c0,0,8.81,25.31-9.47,55C391.21,388.56,403.34,374.13,403.34,374.13Z" style="fill:#043246"/><path d="M423.78,375s27.18-26.05,10-61.11c0,0,8.82,25.3-9.47,55C411.65,389.42,423.78,375,423.78,375Z" style="fill:#043246"/><path d="M420.8,382.09s31.31-23,20.09-59.54c0,0,4.5,26-18.59,53.56C406.36,395.12,420.8,382.09,420.8,382.09Z" style="fill:#043246"/><path d="M410.31,392s31.31-23,20.09-59.54c0,0,4.51,26-18.59,53.56C395.88,405.05,410.31,392,410.31,392Z" style="fill:#043246"/><path d="M379.51,390.28s31.31-23,20.09-59.54c0,0,4.51,26-18.59,53.56C365.07,403.32,379.51,390.28,379.51,390.28Z" style="fill:#043246"/><path d="M382.19,371.31s27.17-26.07,9.93-61.12c0,0,8.82,25.3-9.45,55C370.06,385.74,382.19,371.31,382.19,371.31Z" style="fill:#043246"/><path d="M382.58,383.54s17.87-30.67-10.1-61.1c0,0,16.69,22.69,8.6,55.11C375.5,399.93,382.58,383.54,382.58,383.54Z" style="fill:#043246"/><path d="M380.12,367.3s23.94-28,2.58-61.58c0,0,11.81,24.53-2.82,55.49C369.78,382.58,380.12,367.3,380.12,367.3Z" style="fill:#043246"/><path d="M417.61,367.83s-14.87-31.66,16-60.32c0,0-18.84,21.63-13.9,54.44C423.08,384.6,417.61,367.83,417.61,367.83Z" style="fill:#043246"/><path d="M427.9,360.35s-.69-24.92,9.76-35.81c0,0-14.74,7.81-14.06,35.24Z" style="fill:#043246"/><path d="M428.12,365.12s-7.17-24.27.21-36.62c0,0-12.38,10-4.56,36.76Z" style="fill:#043246"/><path d="M381.76,366.32s-7.18-24.28.21-36.63c0,0-12.39,10-4.56,36.77Z" style="fill:#043246"/><path d="M378.41,355.5s-7.18-24.27.2-36.62c0,0-12.38,10-4.55,36.76Z" style="fill:#043246"/><path d="M439.86,369.91s5.1-24.61,17.89-33.8c0,0-16.29,5.55-22,32.61Z" style="fill:#043246"/><path d="M450.29,368.2s5.1-24.61,17.89-33.8c0,0-16.29,5.55-22,32.61Z" style="fill:#043246"/><path d="M452.67,367.23s-4.67-24.65,4-36.49c0,0-13.37,9.21-8.31,36.35Z" style="fill:#043246"/><path d="M759.69,102.74l-.46,7.13,4.58.3-5.62,15.49,11-4.4-5.91,8.31,5.34.35-.4,6.11A15.58,15.58,0,0,0,778,131.6s0,9.76-9,12.63a59.73,59.73,0,0,0,9-2.87s-2.72,8-9.31,7.57c0,0-3.25,1.68,6.59.43,0,0-3.78,4.79-16.55,2.7,0,0,13.08,6.92,24.12,1.78,0,0-2.17,4.37-5.41,5.74,0,0,2.34,1.09,6-.55,0,0-3.89,4.88-13.33,1.64a5.7,5.7,0,0,0,4.73,3c3.45.23-2.53,1.83-9.61-2.2s-8-2.83-8-2.83-2.09,6.26,9.39,7.22,20.46,1.65,21,1.37-.45,3.75-9.39,5.69a6.09,6.09,0,0,0,5.64.36s.52,3.29-5,3-5.85,1.2-3.12,1.27-.49,2.59-3.74,2.59-5.29,2.38-1.37,2.53,11.6-3.33,11.6-3.33-.79,4-2.46,3.93,4.62.62,7.08-2-1,3.71-4.31,4.54,9,1.33,10.58-1.4c0,0-1.23,6-8.85,7s.28,2.22.28,2.22a15.53,15.53,0,0,1-10.73,3.6s-4.46,2.34.35,2.65a37.66,37.66,0,0,0,9.28-.65s-.06,2.41-5.9,3.5,11.27.94,14.51-2A21.08,21.08,0,0,1,781,209s5.16,1.29,8.7-1.42a16.33,16.33,0,0,1-11.07,5.57s-2.1,3.22,5.59,2.78,12-1,12-1-2.72,4.65-8.08,4.72a10.25,10.25,0,0,0,5.6,1s-3,3.69-10.14,2.69l-7.26-1.31a5.57,5.57,0,0,0,5.72,5.51c5.76.27,2.37,2.36-2.54,2s7.55,4.8,12.89,3.47-.77,2-.77,2,5,3.06,7.69,1.24-5.28,11.76-17.9,7.4-.26,2.33-.26,2.33-7.86-1.78-12.17-4.89,1.65,5.35,7,5.91,1.14,3.43,1.14,3.43,12.32,7.31,25,5.84L796,260l7.82,2.4-15.53,0,6.34,2.51-10.81,1.6,6.48.43-18.51.67s-6.35,4,8.49,5l24.45,1.59s3.44,4.94-2.2,4.57,2.76,2.7,2.76,2.7a42.77,42.77,0,0,0-7.52-.49c-2.33.26,3.79,3,3.79,3a40,40,0,0,0-9.4-.61c-4.85.31-2.59,4.24-2.59,4.24l-4.39-.29s1.4,4.29,11.85,5l18.6,1.22s0,7.13-9,6.54c0,0,4.6,3.66,8.36,3.9,0,0-8.5,1.55-14.3.33l6.32,2.93-10-.66s-1.15,4.76,9.09,5.43,4.28,1.95,4.28,1.95-.8,2.68,2.33,2.88-4.48,1.18-9.29.87,2.88,4.17,2.88,4.17l-9.2-.6s-7.3,9,7.23,11.39c0,0,7.18,2.56,13.59.88a20.25,20.25,0,0,1-6.41,1.68,13.47,13.47,0,0,0,12.22,2.48s-1.76,4.5-9.15,5.07c0,0,3.21,2.31,8.71,1.62,0,0-6.49,6.29-17.68,4.09a6.53,6.53,0,0,0,6.37,5.24c5.64.37-19.72,3.12-27.38-1.79l11.34,6.41s-17.8,2.61-27.16-8.28l3,5.86s-12.61-6.07-17.37-10.37c0,0-6.76,10.36-17.62,9.6l-1.29-2.86s-3.76,6.26-13.38,5.63l5.08-7s-4.43,6.85-17.4,6.21l6.22-5.26s-6.85,8.37-20.22,4.35l6.89-2.7s-15.67,2.12-22.63-3.79c0,0,12.66-1.06,20.71-5.36s11.63-7.84,11.63-7.84-14.64,8.9-26.71,4.12l6.66-2.29s-13,2.93-15.52-.17l7.74-2.85L679,332.35s3.62-.81,9-2.35l-5.91-5.85a29.61,29.61,0,0,0,8.56.56c5.69-.25,25.53-8.4,25.53-8.4l-13.66.16,5.5-3.84s-14.77,4.49-20.49,2l8.23-3.87s-11.25,5.14-15.47,2.34l6.62-5-8.13-.74s34.09-7.85,37.27-14.77c0,0-12.73,5.25-20.86,4.51l5.12-4.49s-8.68,4.26-13.64,3.09l6.28-6.09-6.92,0,3-4.41-7.43,1.4s15.26-5.39,20.48-11.35c0,0-8.06,1.16-13.45.17,0,0,18.17-8.25,20.23-14,0,0-7.77,6.41-16.3,5.23l18.28-13.08-9.57,1.89L716,244.23s11.82-7.41-1.3-5.75-15-4.34-15-4.34l9.91-.61-11.78-2.87s18.64.59,25.42-3.59a20.43,20.43,0,0,0,8.65-10.34s-7.64,7.68-17.25,7.05l2.76-3.59s-9.71,4-14.1,3.69l16.61-10-9.12,1.51s11.71-2.6,20.78-9.77,7.54-9.37,7.54-9.37S727.8,202.4,718.8,202s.68-3.94.68-3.94L708,196.7s21.31-4.9,29.45-10.67,0-2.94-4.53-1.34-14.14,1.17-17.46.53,18.9-6.53,24.73-12.23,4-6.09-1-4.26c-19.48,7.17-16.78.6-17.83.53s10-2.3,10-2.3l-9.51-4.74s13.63-1.68,16.24-2.68c5.58-2.16,8.38-8.32,1.83-8-12.51.67-15.89-3-15.89-3l16.46-4.77-9.84-2.32,15.21-2.42s-13.16-5.39-13-8.32,7.76,3.24,16.12,3.78c0,0-1.29-2.81-4.06-8.45s1.53-1,4.66-.74-.18-6.94-.18-6.94,0,.42,3.74.66-1.62-4.09-1.54-8.49,1.79-1.77,3.77,0S759.69,102.74,759.69,102.74Z" style="fill:#043246"/><path d="M243.91,218l-.47,7.13,4.58.3-5.61,15.49,11-4.39-5.92,8.3,5.35.35-.4,6.11a15.6,15.6,0,0,0,9.72-4.43s0,9.76-9,12.63a59.73,59.73,0,0,0,9-2.87s-2.73,8-9.31,7.57c0,0-3.26,1.68,6.58.43,0,0-3.77,4.79-16.54,2.7,0,0,13.08,6.93,24.12,1.78,0,0-2.18,4.38-5.41,5.74,0,0,2.34,1.1,6-.55,0,0-3.88,4.89-13.32,1.64a5.68,5.68,0,0,0,4.73,3c3.45.23-2.53,1.83-9.62-2.2s-8-2.83-8-2.83-2.08,6.26,9.4,7.22,20.45,1.66,21,1.38-.46,3.74-9.4,5.68a6.08,6.08,0,0,0,5.64.37s.52,3.28-5,3-5.85,1.19-3.13,1.26-.48,2.59-3.73,2.59-5.3,2.38-1.38,2.53,11.61-3.33,11.61-3.33-.79,4.05-2.46,3.93,4.62.62,7.07-1.95-1,3.71-4.31,4.54,9.05,1.33,10.59-1.4c0,0-1.23,6-8.85,7s.27,2.23.27,2.23a15.55,15.55,0,0,1-10.73,3.6s-4.45,2.33.36,2.64a37.61,37.61,0,0,0,9.27-.65s-.05,2.41-5.89,3.5,11.27.94,14.5-2a21.08,21.08,0,0,1-11,8.2s5.17,1.28,8.7-1.43a16.33,16.33,0,0,1-11.07,5.57s-2.1,3.22,5.59,2.78,12-1,12-1-2.72,4.65-8.07,4.72a10.25,10.25,0,0,0,5.6,1s-3,3.69-10.15,2.69l-7.26-1.31a5.58,5.58,0,0,0,5.73,5.51c5.75.28,2.36,2.36-2.55,2s7.56,4.8,12.89,3.47-.76,2.05-.76,2.05,4.94,3.05,7.68,1.23-5.28,11.76-17.9,7.4-.26,2.33-.26,2.33-7.85-1.77-12.16-4.89,1.64,5.35,7,5.91,1.14,3.43,1.14,3.43,12.32,7.32,25,5.84l-6.11,3.58,7.81,2.4-15.53,0,6.34,2.51-10.8,1.6,6.47.43-18.51.68s-6.35,4,8.49,5l24.45,1.6s3.44,4.93-2.2,4.56,2.76,2.7,2.76,2.7a42.69,42.69,0,0,0-7.52-.49c-2.32.27,3.79,3,3.79,3a40.61,40.61,0,0,0-9.4-.61c-4.85.31-2.59,4.24-2.59,4.24l-4.38-.29s1.39,4.29,11.84,5l18.6,1.22s-.05,7.13-9,6.54c0,0,4.59,3.66,8.35,3.91,0,0-8.5,1.54-14.29.32l6.31,2.93-10-.65s-1.15,4.75,9.09,5.42,4.28,2,4.28,2-.81,2.67,2.33,2.88-4.49,1.17-9.29.86,2.87,4.17,2.87,4.17l-9.19-.6s-7.3,9,7.23,11.39c0,0,7.18,2.57,13.58.89a20.45,20.45,0,0,1-6.4,1.68,13.45,13.45,0,0,0,12.22,2.47s-1.77,4.51-9.15,5.07c0,0,3.21,2.31,8.71,1.62,0,0-6.5,6.29-17.69,4.09a6.53,6.53,0,0,0,6.37,5.24c5.65.37-19.72,3.12-27.37-1.79l11.33,6.41s-17.8,2.61-27.16-8.28l3,5.86s-12.62-6.07-17.37-10.37c0,0-6.77,10.36-17.63,9.6l-1.28-2.86s-3.77,6.26-13.38,5.63l5.08-7s-4.44,6.84-17.41,6.2l6.22-5.26s-6.84,8.37-20.22,4.35l6.89-2.7s-15.67,2.12-22.62-3.79c0,0,12.66-1.06,20.7-5.36s11.64-7.84,11.64-7.84-14.65,8.9-26.71,4.13l6.65-2.3s-13,2.93-15.52-.17l7.74-2.85-5.47-2.88s3.62-.81,9-2.35l-5.91-5.84a30.13,30.13,0,0,0,8.57.56c5.68-.26,25.52-8.41,25.52-8.41l-13.65.16,5.5-3.84s-14.78,4.49-20.49,2L180,426s-11.25,5.14-15.48,2.35l6.63-5-8.14-.74s34.09-7.84,37.27-14.77c0,0-12.72,5.25-20.86,4.51l5.12-4.49s-8.67,4.26-13.63,3.09l6.27-6.09-6.92,0,3-4.42-7.44,1.4s15.26-5.39,20.48-11.34c0,0-8.05,1.15-13.44.17,0,0,18.17-8.26,20.22-14,0,0-7.76,6.42-16.29,5.23L195,368.75l-9.56,1.9,14.79-11.21s11.82-7.41-1.3-5.75-15-4.34-15-4.34l9.9-.61-11.77-2.87s18.64.59,25.42-3.59a20.5,20.5,0,0,0,8.65-10.34s-7.64,7.68-17.25,7.05l2.75-3.59s-9.7,4-14.09,3.69l16.6-10-9.12,1.5s11.71-2.59,20.79-9.77,7.54-9.37,7.54-9.37S212,317.61,203,317.23s.68-3.94.68-3.94l-11.46-1.38s21.31-4.9,29.45-10.67,0-2.94-4.53-1.34-14.13,1.17-17.45.54,18.89-6.53,24.72-12.24,4-6.09-1-4.26c-19.48,7.17-16.78.6-17.82.53s10-2.3,10-2.3l-9.5-4.74s13.62-1.68,16.23-2.68c5.59-2.16,8.39-8.32,1.84-8-12.52.67-15.89-3-15.89-3L224.72,259l-9.83-2.32,15.21-2.42s-13.17-5.39-13-8.32,7.77,3.24,16.12,3.78c0,0-1.28-2.81-4.06-8.45s1.53-.95,4.67-.74-.18-6.94-.18-6.94,0,.42,3.73.67-1.62-4.1-1.54-8.5,1.8-1.77,3.78,0S243.91,218,243.91,218Z" style="fill:#043246"/><path d="M100.5,0l-.56,8.64,5.55.36-6.8,18.76L112,22.44l-7.16,10.07,6.48.42-.49,7.4A18.86,18.86,0,0,0,122.65,35s0,11.82-10.92,15.31a73.43,73.43,0,0,0,10.91-3.49s-3.31,9.7-11.28,9.18c0,0-4,2,8,.52,0,0-4.57,5.81-20,3.27,0,0,15.85,8.39,29.22,2.15,0,0-2.63,5.31-6.55,7,0,0,2.83,1.33,7.29-.67,0,0-4.71,5.92-16.15,2a6.93,6.93,0,0,0,5.73,3.68c4.18.27-3.07,2.21-11.65-2.67s-9.69-3.43-9.69-3.43S95,75.36,108.87,76.52s24.79,2,25.44,1.66-.55,4.54-11.38,6.89a7.39,7.39,0,0,0,6.84.44s.63,4-6.09,3.67-7.09,1.45-3.79,1.54-.58,3.14-4.53,3.13-6.41,2.89-1.66,3.07,14.06-4,14.06-4-1,4.91-3,4.77,5.6.74,8.57-2.37-1.21,4.5-5.22,5.51,11,1.61,12.83-1.7c0,0-1.5,7.27-10.73,8.45s.34,2.69.34,2.69a18.8,18.8,0,0,1-13,4.36s-5.4,2.83.42,3.21a45.94,45.94,0,0,0,11.24-.79s-.06,2.92-7.14,4.23,13.66,1.15,17.57-2.41a25.5,25.5,0,0,1-13.36,9.93s6.26,1.56,10.54-1.72c0,0-4.32,5.82-13.41,6.75,0,0-2.54,3.9,6.77,3.37S144.77,136,144.77,136s-3.29,5.63-9.78,5.71a12.37,12.37,0,0,0,6.79,1.21s-3.6,4.47-12.29,3.26l-8.8-1.59a6.77,6.77,0,0,0,6.94,6.69c7,.32,2.86,2.85-3.08,2.46s9.15,5.81,15.61,4.2-.92,2.48-.92,2.48,6,3.7,9.31,1.5-6.4,14.25-21.69,9-.31,2.82-.31,2.82-9.53-2.15-14.75-5.93,2,6.49,8.44,7.17,1.38,4.15,1.38,4.15,14.93,8.86,30.3,7.07l-7.41,4.35,9.48,2.9-18.82,0,7.68,3-13.09,1.94,7.85.51-22.43.83s-7.69,4.83,10.28,6l29.62,1.93s4.18,6-2.66,5.53,3.35,3.27,3.35,3.27-6.3-.92-9.12-.59,4.6,3.6,4.6,3.6a49,49,0,0,0-11.39-.74c-5.88.38-3.14,5.13-3.14,5.13l-5.31-.34s1.69,5.19,14.35,6L168.29,231s-.06,8.64-10.94,7.93c0,0,5.56,4.43,10.12,4.73,0,0-10.3,1.87-17.32.39l7.65,3.56-12.15-.8s-1.4,5.76,11,6.57,5.18,2.37,5.18,2.37-1,3.24,2.82,3.49-5.43,1.43-11.25,1.05,3.48,5.05,3.48,5.05l-11.14-.72s-8.84,10.86,8.76,13.79c0,0,8.7,3.11,16.46,1.08a24.58,24.58,0,0,1-7.76,2,16.29,16.29,0,0,0,14.8,3s-2.13,5.46-11.08,6.14c0,0,3.89,2.8,10.55,2,0,0-7.87,7.62-21.42,5,0,0,.88,5.9,7.72,6.35s-23.9,3.78-33.17-2.17l13.73,7.77s-21.56,3.16-32.9-10l3.6,7.1s-15.28-7.35-21-12.56c0,0-8.2,12.55-21.36,11.63l-1.55-3.47s-4.57,7.59-16.21,6.82L61,300.55s-5.38,8.29-21.09,7.52l7.54-6.37S39.19,311.83,23,307l8.35-3.27s-19,2.57-27.41-4.59c0,0,15.34-1.28,25.08-6.49s14.1-9.51,14.1-9.51-17.74,10.79-32.36,5l8.06-2.78S3.06,288.88,0,285.12l9.38-3.46-6.64-3.48s4.39-1,10.87-2.85l-7.17-7.08s3.5,1,10.38.68,30.92-10.19,30.92-10.19l-16.53.19,6.66-4.65S20,259.72,13,256.73L23,252s-13.63,6.23-18.74,2.84l8-6.08-9.86-.9s41.31-9.5,45.16-17.9c0,0-15.42,6.37-25.27,5.47l6.2-5.44S18,235.19,12,233.78l7.6-7.39-8.38,0L14.87,221l-9,1.7S24.35,216.17,30.67,209c0,0-9.75,1.39-16.28.2,0,0,22-10,24.5-17,0,0-9.41,7.78-19.74,6.34L41.29,182.7,29.7,185l17.92-13.57s14.32-9-1.58-7-18.21-5.26-18.21-5.26l12-.74L25.56,155s22.58.72,30.79-4.34A24.78,24.78,0,0,0,66.83,138.1s-9.25,9.31-20.9,8.55l3.34-4.36s-11.76,4.82-17.07,4.47L52.32,134.6l-11.06,1.82s14.19-3.14,25.19-11.82,9.13-11.36,9.13-11.36-13.71,7.5-24.62,7,.82-4.78.82-4.78l-13.87-1.67s25.81-5.94,35.68-12.92,0-3.56-5.49-1.63S51,100.7,47,99.93,69.85,92,76.91,85.11s4.83-7.38-1.19-5.16c-23.6,8.68-20.33.72-21.59.64S66.2,77.8,66.2,77.8L54.69,72.06s16.5-2,19.66-3.25c6.77-2.61,10.16-10.08,2.22-9.66-15.16.82-19.25-3.61-19.25-3.61l19.94-5.79L65.35,47,83.77,44s-16-6.53-15.72-10.08,9.41,3.92,19.53,4.59c0,0-1.55-3.41-4.92-10.24s1.85-1.15,5.65-.9S88.1,19,88.1,19s0,.51,4.52.81-2-5-1.87-10.3,2.18-2.14,4.58,0S100.5,0,100.5,0Z" style="fill:#043246"/><polygon points="859.32 30.27 862.5 36.96 865.79 29.82 862.87 1.82 859.32 30.27" style="fill:#043246"/><path d="M963.36,367.72c11.71-1.67,14-9,14-9A21.52,21.52,0,0,1,957.67,356a32,32,0,0,0,10-3.35c-10,3.35-21.74,0-21.74,0-23.42-2.34,11.37-12.55,11.37-12.55s-22.08-11.2-14.38-11.2,19.74-2.34,14.72-2.34-4-4.35-4-4.35,9.37-2.68-7-2.68-15.06-7.69-15.06-7.69h16.06l-10.37-4c9.37,1.34,22.76-2,22.76-2-6,0-13.73-5.36-13.73-5.36,14.39,0,13.72-11.37,13.72-11.37H930.24c-16.73,0-19.41-6.69-19.41-6.69h7s-4-6,3.68-7a64.66,64.66,0,0,1,15.05,0s-10-3.68-6.35-4.35,12,0,12,0-13.72-4-4.68-4a11.15,11.15,0,0,0,11-8H909.49c-23.75,0-14-7-14-7l29.44-3H914.51l17.06-3.68-10.37-3.34L946,240.25l-12.71-3,9.36-6.35c-20.07,3.68-40.48-6.69-40.48-6.69s6.36-5-2.17-5.36-18.9-13.21-11.71-8.7,19.9,6.53,19.9,6.53-20.4-9.37.17-3.74,31.95-16.84,27.77-13.66-12.38-1.17-12.38-1.17,9.37-6,1-3.34-28.77-4.19-20.9-4.19,13-3.68,3.84-3.51-9.7-8.2-9.7-8.2l11.71,1.34c11.54.84,15.89-5.35,15.89-5.35a16.4,16.4,0,0,1-9-1c8.53-.67,16.66-12.95,16.66-12.95s-15.72,7-27.76,5-13.72-6.36-4.41-7.55a24.36,24.36,0,0,0,19.69-15c-4.85,5-32.12,7-22.92,4.69s19.35-10.94,19.35-10.94-17.34,6.75-25,6.75-.84-4.18-.84-4.18c32.89-4.58,39.92-21.64,39.92-21.64-4.46,4.87-32.39,4.24-27.21,2.57s10-12,6.4-7.69-13.76,3.84-11.08,3.85,3.51-6.53,3.51-6.53-21.41,2.68-16.22,2.34,10-4.68,5.68-4.51-4-2.18,4.85-2.35,7.7-5.35,7.7-5.35a9.71,9.71,0,0,1-9,0C909.83,96.4,917,87.47,916.12,88s-21.78,6.31-41.63.73c-7.3-2-6.57-8.07-.63-5.18C885.57,89.2,894.94,86,889.42,86a9.11,9.11,0,0,1-7.86-4.35c15.39,4.18,21.07-4,21.07-4-5.68,3-9.53,1.51-9.53,1.51,5-2.51,8-9.72,8-9.72-15.76,8.64-26.06,1.1-29-.12l-9.29-.17c20.25,1.86,25.71-6,25.71-6-15.55,3-10.54,0-10.54,0,10.54,0,14.06-13,14.06-13A95.86,95.86,0,0,1,878,55.58c14.06-5.52,13.05-21.08,13.05-21.08-7,7.53-22.18,7.37-22.18,7.37s20.75-7.4,16.73-9.07c-3.76-1.56-22.2,2-18.14,0C878.06,27.59,876.14,22,876.14,22s-10.76,4.86-14.55,4.52c-4.06-.37-14.47-7.54-14.47-7.54s.38,10.21,8.56,13.86c4.34,1.94-10.63-.08-18.88-2.09-3.82-.92,4.23,9.93,10.32,11.87,9.9,3.17-3.72.07-15-8.08,0,0-1,15.56,13,21.08a95.55,95.55,0,0,1-14-5.52s3.51,13,14,13c0,0,5,3-10.54,0,0,0-1.1,8.19,19.14,6.33,0,0-15.93,8.65-31.68,0,0,0,3,7.21,8,9.72,0,0-3.84,1.5-9.53-1.51,0,0,5.69,8.2,21.08,4A9.14,9.14,0,0,1,833.76,86c-5.52,0,3.85,3.17,15.56-2.51,5.95-2.89,4.81,5.62-2.68,6.85-21,3.46-32.78.51-33.62,0s.34,6,14.39,10a9.71,9.71,0,0,1-9,0s-1.18,5.19,7.69,5.35,9.2,2.51,4.85,2.35.5,4.18,5.69,4.51-16.23-2.34-16.23-2.34.84,6.53,3.52,6.53-7.44.5-11.08-3.85,1.21,6,6.39,7.69-14.55,1.17-16.73-3.34c0,0,1.34,9.7,13.39,12s-.67,3.51-.67,3.51a24.79,24.79,0,0,0,16.72,6.86s6.86,4.18-.83,4.18a60.69,60.69,0,0,1-14.72-2s-.17,3.84,9,6.19-18.07.33-22.92-4.69a33.71,33.71,0,0,0,16.73,14.22s-8.36,1.51-13.72-3.18c0,0,20.08,15.39,7.87,13.89s-19.07-2.85-19.07-2.85,3.84,7.7,12.38,8.37a16.44,16.44,0,0,1-9,1s3.53,5,12.64,5.41a10.9,10.9,0,0,1,6.81,2.58c.79.69,0,2.39-1.26,4.31-3.57,5.25-28.59,7.25-30.84,5.53-4.18-3.18,1.34,14.57,28.1,14.57,21.33,0-7.69,18.89-36.8,15.21,0,0,.67,11.71,13.66,14.78,14,3.33,24.32,3.84,20.8,3.28l-29.11,4.35S806.05,259,827.74,252c3.74-1.21,9.7,7-14,7H774.55a11.15,11.15,0,0,0,11,8c9,0-4.68,4-4.68,4s8.36-.67,12,0-6.36,4.35-6.36,4.35a64.74,64.74,0,0,1,15.06,0c7.69,1,3.68,7,3.68,7h7s-2.67,6.69-19.4,6.69H763.17s-.67,11.37,13.72,11.37c0,0-7.7,5.36-13.72,5.36,0,0,13.39,3.34,22.75,2l-10.37,4h16.06s1.34,7.69-15.05,7.69-7,2.68-7,2.68,1,4.35-4,4.35,7,2.34,14.72,2.34-5,6.36-5,6.36h9.36c4.31,0,8,3.51,7.78,7.82-.25,4.05-3.43,8.4-15.13,9.57,0,0-11.71,3.35-21.75,0a32,32,0,0,0,10,3.35,21.53,21.53,0,0,1-19.74,2.68s2.34,7.36,14.05,9c0,0-5.35,3.35-14.05,1.67,0,0,9.7,10.71,27.76,8.37,0,0-1.67,7.69-10.7,7.69-8.74,0,28.55,6.58,42.5.64l-17.41,8.39s28.1,6,44.16-10.37l-5.35,9s9.24-3.73,17.77-8.1c5.42-2.77,11.39-1.39,17,1,0,0,.08,0,.1,0a.09.09,0,0,0,.1,0c5.59-2.42,11.56-3.8,17-1,8.53,4.37,17.76,8.1,17.76,8.1l-5.35-9c16.06,16.4,44.16,10.37,44.16,10.37l-17.4-8.39c13.94,5.94,51.23-.64,42.49-.64-9,0-10.7-7.69-10.7-7.69,18.06,2.34,27.77-8.37,27.77-8.37C968.71,371.07,963.36,367.72,963.36,367.72Z" style="fill:#043246"/><polygon points="159.07 95.18 162.25 101.87 165.54 94.73 162.62 66.73 159.07 95.18" style="fill:#043246"/><path d="M263.11,432.63c11.71-1.67,14.05-9,14.05-9a21.52,21.52,0,0,1-19.74-2.68,32.32,32.32,0,0,0,10-3.34c-10,3.34-21.75,0-21.75,0C222.29,415.23,257.08,405,257.08,405s-22.08-11.2-14.38-11.2,19.74-2.34,14.72-2.34-4-4.35-4-4.35,9.37-2.68-7-2.68-15.06-7.69-15.06-7.69h16.06l-10.37-4c9.37,1.34,22.76-2,22.76-2-6,0-13.73-5.36-13.73-5.36,14.39,0,13.72-11.37,13.72-11.37H230c-16.73,0-19.41-6.69-19.41-6.69h7s-4-6,3.68-7a64.66,64.66,0,0,1,15.05,0s-10-3.68-6.35-4.35,12,0,12,0-13.72-4-4.68-4a11.15,11.15,0,0,0,11-8H209.24c-23.75,0-14.05-7-14.05-7l29.44-3H214.26l17.06-3.68L221,306.84l24.76-1.68-12.71-3,9.36-6.35c-20.07,3.68-40.48-6.69-40.48-6.69s6.36-5-2.17-5.36-18.9-13.21-11.71-8.69,19.9,6.52,19.9,6.52-20.4-9.37.17-3.74,32-16.84,27.77-13.66S223.46,263,223.46,263s9.37-6,1-3.34-28.78-4.19-20.91-4.19,13-3.68,3.84-3.51-9.7-8.2-9.7-8.2l11.71,1.34c11.54.84,15.89-5.35,15.89-5.35a16.4,16.4,0,0,1-9-1c8.53-.67,16.67-12.95,16.67-12.95s-15.73,7-27.77,5-13.72-6.36-4.4-7.55a24.35,24.35,0,0,0,19.68-15c-4.85,5-32.12,7-22.92,4.69s19.35-10.94,19.35-10.94-17.34,6.75-25,6.75-.84-4.18-.84-4.18C223.9,200.05,230.93,183,230.93,183c-4.46,4.87-32.39,4.24-27.21,2.57s10-12,6.4-7.69-13.76,3.84-11.08,3.85,3.51-6.53,3.51-6.53-21.41,2.68-16.22,2.34,10-4.68,5.68-4.51-4-2.18,4.85-2.35,7.7-5.35,7.7-5.35a9.71,9.71,0,0,1-9,0c14.05-4,21.18-12.94,20.34-12.44s-21.78,6.31-41.63.73c-7.3-2.05-6.57-8.07-.63-5.18,11.71,5.68,21.08,2.51,15.56,2.51a9.11,9.11,0,0,1-7.86-4.35c15.39,4.18,21.07-4,21.07-4-5.68,3-9.53,1.51-9.53,1.51,5-2.51,8-9.72,8-9.72-15.75,8.64-26.06,1.1-29-.12l-9.29-.17c20.25,1.86,25.71-6,25.71-6-15.55,3-10.54,0-10.54,0,10.54,0,14.06-13.05,14.06-13.05a95.35,95.35,0,0,1-14.06,5.52c14.06-5.52,13.05-21.08,13.05-21.08-7,7.53-22.18,7.37-22.18,7.37s20.75-7.4,16.73-9.07c-3.76-1.56-22.2,2-18.14,0,10.56-5.21,8.64-10.84,8.64-10.84s-10.76,4.86-14.55,4.52c-4.06-.37-14.47-7.54-14.47-7.54s.38,10.21,8.56,13.86c4.34,1.94-10.63-.08-18.88-2.09-3.82-.92,4.23,9.93,10.32,11.87,9.9,3.17-3.72.07-15-8.08,0,0-1,15.56,13,21.08a95.55,95.55,0,0,1-14-5.52s3.51,13.05,14,13.05c0,0,5,3-10.54,0,0,0-1.1,8.19,19.14,6.33,0,0-15.93,8.65-31.68,0,0,0,3,7.21,8,9.72,0,0-3.84,1.5-9.53-1.51,0,0,5.69,8.2,21.08,4a9.12,9.12,0,0,1-7.87,4.35c-5.52,0,3.85,3.17,15.56-2.51,6-2.89,4.81,5.62-2.67,6.85-21,3.46-32.79.51-33.63,0s.34,6,14.39,10a9.71,9.71,0,0,1-9,0s-1.18,5.19,7.69,5.35,9.2,2.51,4.85,2.35.5,4.18,5.69,4.51-16.23-2.34-16.23-2.34.84,6.53,3.52,6.53-7.44.5-11.08-3.85,1.21,6,6.39,7.69-14.55,1.17-16.73-3.34c0,0,1.34,9.7,13.39,12s-.67,3.51-.67,3.51a24.79,24.79,0,0,0,16.72,6.86s6.86,4.18-.83,4.18a60.69,60.69,0,0,1-14.72-2s-.17,3.84,9,6.19-18.06.33-22.92-4.69A33.71,33.71,0,0,0,119,222.53s-8.36,1.51-13.71-3.18c0,0,20.07,15.39,7.86,13.89S94,230.39,94,230.39s3.84,7.7,12.38,8.37a16.44,16.44,0,0,1-9,1s3.53,5,12.64,5.41a10.88,10.88,0,0,1,6.81,2.58c.79.69,0,2.39-1.26,4.31-3.57,5.25-28.59,7.25-30.84,5.53-4.18-3.18,1.34,14.57,28.1,14.57,21.33,0-7.69,18.89-36.8,15.21,0,0,.67,11.71,13.66,14.78,14,3.33,24.32,3.85,20.8,3.28l-29.11,4.35s24.42,14.12,46.11,7.09c3.74-1.21,9.71,7-14,7H74.3a11.15,11.15,0,0,0,11,8c9,0-4.68,4-4.68,4s8.36-.67,12,0-6.36,4.35-6.36,4.35a64.74,64.74,0,0,1,15.06,0c7.69,1,3.68,7,3.68,7h7S109.43,354,92.7,354H62.92s-.67,11.37,13.72,11.37c0,0-7.7,5.36-13.72,5.36,0,0,13.39,3.34,22.75,2l-10.37,4H91.36s1.34,7.69-15,7.69-7,2.68-7,2.68,1,4.35-4,4.35,7,2.34,14.72,2.34-5,6.36-5,6.36h9.36c4.32,0,8,3.51,7.78,7.82-.25,4.05-3.43,8.4-15.13,9.58,0,0-11.71,3.34-21.75,0a32.19,32.19,0,0,0,10,3.34,21.53,21.53,0,0,1-19.74,2.68s2.34,7.36,14,9c0,0-5.35,3.35-14,1.67,0,0,9.7,10.71,27.77,8.37,0,0-1.68,7.69-10.71,7.69-8.74,0,28.55,6.58,42.5.64l-17.41,8.39s28.1,6,44.16-10.37l-5.35,9s9.24-3.73,17.77-8.1c5.42-2.77,11.39-1.39,17,1,0,0,.08,0,.1,0a.09.09,0,0,0,.1,0c5.59-2.42,11.56-3.8,17-1,8.53,4.37,17.77,8.1,17.77,8.1l-5.36-9C206.9,465.42,235,459.39,235,459.39L217.6,451c13.94,5.94,51.23-.64,42.5-.64-9,0-10.71-7.69-10.71-7.69,18.07,2.34,27.77-8.37,27.77-8.37C268.46,436,263.11,432.63,263.11,432.63Z" style="fill:#043246"/></g></g></svg>